# xmcd
#
# Track frame offsets:
#	150
#	12223
#	28545
#	47073
#	63235
#	75123
#	90455
#	106445
#	120873
#	135553
#	152008
#	163815
#	177733
#	195400
#	210418
#	229295
#	244525
#	245275
#	246025
#	246775
#
# Disc length: 3482 seconds
#
# Revision: 0
# Processed by: cddbd v1.5.2PL0 Copyright (c) Steve Scherf et al.
# Submitted via: EasyCDDAExtractor 7.1.2.1
#
DISCID=f10d9814
DTITLE=Various Artist - TM Century - GoldDisc 1147
DYEAR=1900
DGENRE=Country
TTITLE0=Robert Orrall Ellis - Boom! It Was Over
TTITLE1=Gibson Miller Band - High Rollin'
TTITLE2=John Michael Montgomery - I Love The Way You Love Me
TTITLE3=Toby Keith - Should've Been A Cowboy
TTITLE4=Larry Stewart - Alright Already
TTITLE5=Dwight Yoakam - Ain't That Lovely Yet
TTITLE6=Joe Diffie - Honky Tonk Attitude
TTITLE7=Collin Raye - Somebody Else's Moon
TTITLE8=Suzy Bogguss - Heartache
TTITLE9=Patty Loveless - Blame It On Your Heart
TTITLE10=Sawyer Brown - Trouble On The Line
TTITLE11=Travis Tritt - T-R-O-U-B-L-E (single version)
TTITLE12=Wynonna Judd - Tell Me Why
TTITLE13=Diamond Rio - Oh Me, Oh My, Sweet Baby
TTITLE14=Vince Gill - No Future In The Past
TTITLE15=Alabama - Hometown Honeymood
TTITLE16=blank - blank
TTITLE17=blank - blank
TTITLE18=blank - blank
TTITLE19=Travis Tritt - T-R-O-U-B-L-E (dance mix)
EXTD=
EXTT0=
EXTT1=
EXTT2=
EXTT3=
EXTT4=
EXTT5=
EXTT6=
EXTT7=
EXTT8=
EXTT9=
EXTT10=
EXTT11=
EXTT12=
EXTT13=
EXTT14=
EXTT15=
EXTT16=
EXTT17=
EXTT18=
EXTT19=
PLAYORDER=
